<svg xmlns="http://www.w3.org/2000/svg" width="22" height="18" viewBox="0 0 22 18">
  <defs>
    <filter id="email-a">
      <feColorMatrix in="SourceGraphic" values="0 0 0 0 0.105882 0 0 0 0 0.105882 0 0 0 0 0.105882 0 0 0 1.000000 0"/>
    </filter>
  </defs>
  <g fill="none" fill-rule="evenodd" filter="url(#email-a)" transform="translate(-1 -3)">
    <path fill="#1B1B1B" d="M21,3 C22.1045695,3 23,3.8954305 23,5 L23,19 C23,20.1045695 22.1045695,21 21,21 L3,21 C1.8954305,21 1,20.1045695 1,19 L1,5 C1,3.8954305 1.8954305,3 3,3 L21,3 Z M20.7988283,5.39997237 C20.4674422,4.95815602 19.8406377,4.86863461 19.3988214,5.20002072 L19.3988214,5.20002072 L11.999,10.75 L4.60002763,5.20002072 L4.49500486,5.1309875 C4.06352785,4.88449172 3.50591559,4.99214189 3.20002072,5.39997237 C2.86863461,5.84178873 2.95815602,6.46859317 3.39997237,6.79997928 L3.39997237,6.79997928 L11.3993969,12.7999793 L11.5098008,12.8719867 C11.8514145,13.0640066 12.279442,13.0400041 12.5994521,12.7999793 L12.5994521,12.7999793 L20.5988766,6.79997928 L20.6945493,6.71848012 C21.0519749,6.37325633 21.1047231,5.80780286 20.7988283,5.39997237 Z"/>
  </g>
</svg>
