<svg xmlns="http://www.w3.org/2000/svg" viewBox="0 0 24 24">
  <path fill-rule="evenodd" d="M17.9535461,3.52158899 L17.9535461,3.53381123 C17.8802118,4.95036859 19.0486719,6.12003674 20.4664687,6.04670331 L20.4774688,6.04670331 C22.7276101,5.93181428 23.8765144,8.70504003 22.204492,10.2144864 L22.1959363,10.223042 C21.1423666,11.1739321 21.1423666,12.8263786 22.1959363,13.7772687 L22.204492,13.784602 C23.8765144,15.2952706 22.7276101,18.0684964 20.4774688,17.9536073 L20.4664687,17.9523851 C19.0486719,17.8802739 17.8802118,19.0487198 17.9535461,20.4664994 L17.9535461,20.4774994 C18.0684365,22.7276134 15.2951771,23.8765037 13.7844902,22.2045016 L13.7771568,22.1959461 C12.8262552,21.1423892 11.1737886,21.1423892 10.2228869,22.1959461 L10.2143313,22.2045016 C8.70486657,23.8765037 5.93160718,22.7276134 6.04649761,20.4774994 L6.04649761,20.4664994 C6.11983192,19.0487198 4.95014958,17.8802739 3.53357503,17.9523851 L3.52135265,17.9536073 C1.27243361,18.0684964 0.123529324,15.2952706 1.79555174,13.784602 L1.80410741,13.7772687 C2.85767708,12.8263786 2.85767708,11.1739321 1.80410741,10.223042 L1.79555174,10.2144864 C0.123529324,8.70504003 1.27243361,5.93181428 3.52135265,6.04670331 L3.53357503,6.04670331 C4.95014958,6.12003674 6.11983192,4.95036859 6.04649761,3.53381123 L6.04649761,3.52158899 C5.93160718,1.27147502 8.70486657,0.123806899 10.2143313,1.79580902 L10.2228869,1.80436459 C11.1737886,2.85792148 12.8262552,2.85792148 13.7771568,1.80436459 L13.7844902,1.79580902 C15.2951771,0.123806899 18.0684365,1.27147502 17.9535461,3.52158899 Z M12,8 C9.791,8 8,9.791 8,12 C8,14.209 9.791,16 12,16 C14.209,16 16,14.209 16,12 C16,9.791 14.209,8 12,8 Z"/>
</svg>
