<?xml version="1.0" standalone="no"?>
<!DOCTYPE svg PUBLIC "-//W3C//DTD SVG 20010904//EN"
 "http://www.w3.org/TR/2001/REC-SVG-20010904/DTD/svg10.dtd">
<svg version="1.0" xmlns="http://www.w3.org/2000/svg"
 width="384.000000pt" height="384.000000pt" viewBox="0 0 384.000000 384.000000"
 preserveAspectRatio="xMidYMid meet">
<metadata>
Created by potrace 1.11, written by Peter Selinger 2001-2013
</metadata>
<g transform="translate(0.000000,384.000000) scale(0.100000,-0.100000)"
fill="#000000" stroke="none">
<path d="M793 3406 c-205 -39 -383 -136 -524 -283 -121 -127 -183 -235 -235
-408 -25 -81 -27 -106 -28 -245 0 -129 3 -169 22 -240 30 -116 108 -269 186
-365 35 -44 347 -362 693 -707 664 -662 648 -648 737 -648 43 0 113 37 143 76
28 38 40 101 29 161 -7 33 -48 79 -337 368 l-329 330 276 275 c152 151 289
293 305 314 23 31 29 49 29 89 0 49 -2 52 -72 123 -77 77 -106 90 -166 79 -32
-6 -79 -48 -340 -308 l-303 -302 -202 205 c-181 183 -207 213 -241 282 -191
391 86 839 519 840 101 1 169 -14 264 -59 59 -28 97 -58 196 -153 133 -128
164 -146 246 -138 112 11 184 117 154 230 -11 43 -27 64 -106 145 -189 190
-322 273 -515 323 -104 27 -303 35 -401 16z"/>
<path d="M2735 3410 c-152 -23 -314 -91 -438 -184 -40 -30 -117 -101 -173
-158 -116 -119 -132 -153 -110 -239 29 -110 147 -168 251 -124 20 8 89 66 155
129 95 92 134 122 192 149 95 45 163 60 270 59 384 -3 660 -374 552 -744 -40
-136 -35 -130 -740 -838 -365 -366 -668 -678 -673 -693 -17 -44 -13 -114 8
-156 11 -20 39 -50 62 -67 36 -24 52 -29 104 -29 51 0 69 5 101 27 68 47 1327
1318 1368 1381 123 190 175 376 163 590 -16 287 -146 533 -377 711 -196 151
-470 223 -715 186z"/>
</g>
</svg>
