<svg xmlns="http://www.w3.org/2000/svg" width="22" height="18">
  <defs>
    <filter id="a">
      <feColorMatrix in="SourceGraphic" values="0 0 0 0 0.105882 0 0 0 0 0.105882 0 0 0 0 0.105882 0 0 0 1.000000 0"/>
    </filter>
  </defs>
  <g fill="none" fill-rule="evenodd" filter="url(#a)" transform="translate(-1 -3)">
    <path fill="#1B1B1B" d="M21 3a2 2 0 012 2v14a2 2 0 01-2 2H3a2 2 0 01-2-2V5c0-1.1.9-2 2-2h18zm-.2 2.4a1 1 0 00-1.4-.2L12 10.75 4.6 5.2l-.1-.07A1 1 0 003.4 6.8l8 6 .11.07a1 1 0 001.09-.07l8-6 .1-.08a1 1 0 00.1-1.32z"/>
  </g>
</svg>