<svg xmlns="http://www.w3.org/2000/svg" width="137" height="32" viewBox="0 0 137 32">
  <g fill="none" fill-rule="evenodd">
    <path fill="#1B1B1B" fill-rule="nonzero" d="M48.5557029,25.36832 L48.5557029,16.8131657 L57.1969829,16.8131657 L57.1969829,13.8274743 L48.5557029,13.8274743 L48.5557029,8.25801143 L58.4888686,8.25801143 L58.4888686,5.27232 L45.4551771,5.27232 L45.4551771,25.36832 L48.5557029,25.36832 Z M67.7330286,25.6554057 C68.9005105,25.6554057 70.0201448,25.4257371 71.0919314,24.9664 C72.1637181,24.5070629 73.0058362,23.980739 73.6182857,23.3874286 L73.6182857,23.3874286 L73.6469943,23.3874286 L72.1828571,21.2342857 C71.7617981,21.5979276 71.2259048,21.9759238 70.5751771,22.3682743 C69.9244495,22.7606248 69.0727619,22.9568 68.0201143,22.9568 C66.5655467,22.9568 65.3645714,22.5596648 64.4171886,21.7653943 C63.4698057,20.9711238 62.9099886,19.8945524 62.7377371,18.53568 L62.7377371,18.53568 L74.2785829,18.53568 L74.3072914,17.2725029 C74.3072914,15.8179352 74.0010667,14.5451886 73.3886171,13.4542629 C72.7761676,12.3633371 71.9531886,11.5068648 70.91968,10.8848457 C69.8861714,10.2628267 68.7378286,9.95181714 67.4746514,9.95181714 C66.09664,9.95181714 64.8238933,10.2723962 63.6564114,10.9135543 C62.4889295,11.5547124 61.5511162,12.4733867 60.8429714,13.6695771 C60.1348267,14.8657676 59.7807543,16.305981 59.7807543,17.9902171 C59.7807543,19.4639238 60.1156876,20.7797333 60.7855543,21.9376457 C61.455421,23.0955581 62.3884495,24.0046629 63.58464,24.66496 C64.7808305,25.3252571 66.1636267,25.6554057 67.7330286,25.6554057 Z M71.2928914,16.1815771 L62.8525714,16.1815771 C63.1205181,14.899261 63.6755505,13.994941 64.5176686,13.4686171 C65.3597867,12.9422933 66.3454476,12.6791314 67.4746514,12.6791314 C68.10624,12.6791314 68.6995505,12.8178895 69.2545829,13.0954057 C69.8096152,13.3729219 70.2737371,13.7604876 70.6469486,14.2581029 C71.02016,14.7557181 71.2354743,15.3298895 71.2928914,15.9806171 L71.2928914,15.9806171 L71.2928914,16.1815771 Z M83.6949943,25.6554057 C84.8624762,25.6554057 85.9821105,25.4257371 87.0538971,24.9664 C88.1256838,24.5070629 88.9678019,23.980739 89.5802514,23.3874286 L89.5802514,23.3874286 L89.60896,23.3874286 L88.1448229,21.2342857 C87.7237638,21.5979276 87.1878705,21.9759238 86.5371429,22.3682743 C85.8864152,22.7606248 85.0347276,22.9568 83.98208,22.9568 C82.5275124,22.9568 81.3265371,22.5596648 80.3791543,21.7653943 C79.4317714,20.9711238 78.8719543,19.8945524 78.6997029,18.53568 L78.6997029,18.53568 L90.2405486,18.53568 L90.2692571,17.2725029 C90.2692571,15.8179352 89.9630324,14.5451886 89.3505829,13.4542629 C88.7381333,12.3633371 87.9151543,11.5068648 86.8816457,10.8848457 C85.8481371,10.2628267 84.6997943,9.95181714 83.4366171,9.95181714 C82.0586057,9.95181714 80.785859,10.2723962 79.6183771,10.9135543 C78.4508952,11.5547124 77.5130819,12.4733867 76.8049371,13.6695771 C76.0967924,14.8657676 75.74272,16.305981 75.74272,17.9902171 C75.74272,19.4639238 76.0776533,20.7797333 76.74752,21.9376457 C77.4173867,23.0955581 78.3504152,24.0046629 79.5466057,24.66496 C80.7427962,25.3252571 82.1255924,25.6554057 83.6949943,25.6554057 Z M87.2548571,16.1815771 L78.8145371,16.1815771 C79.0824838,14.899261 79.6375162,13.994941 80.4796343,13.4686171 C81.3217524,12.9422933 82.3074133,12.6791314 83.4366171,12.6791314 C84.0682057,12.6791314 84.6615162,12.8178895 85.2165486,13.0954057 C85.771581,13.3729219 86.2357029,13.7604876 86.6089143,14.2581029 C86.9821257,14.7557181 87.19744,15.3298895 87.2548571,15.9806171 L87.2548571,15.9806171 L87.2548571,16.1815771 Z M95.5803429,25.36832 L95.5803429,4.12397714 L92.62336,4.12397714 L92.62336,25.36832 L95.5803429,25.36832 Z M100.920137,7.02354286 C101.590004,7.02354286 102.087619,6.83215238 102.412983,6.44937143 C102.738347,6.06659048 102.901029,5.6359619 102.901029,5.15748571 C102.901029,4.60245333 102.738347,4.15268571 102.412983,3.80818286 C102.087619,3.46368 101.590004,3.29142857 100.920137,3.29142857 C100.25027,3.29142857 99.7526552,3.48281905 99.4272914,3.8656 C99.1019276,4.24838095 98.9392457,4.67900952 98.9392457,5.15748571 C98.9392457,5.7125181 99.1019276,6.16228571 99.4272914,6.50678857 C99.7526552,6.85129143 100.25027,7.02354286 100.920137,7.02354286 Z M102.441691,25.36832 L102.441691,10.29632 L99.4847086,10.29632 L99.4847086,25.36832 L102.441691,25.36832 Z M109.015954,25.36832 L109.015954,16.2389943 C109.015954,15.5882667 109.188206,14.9949562 109.532709,14.4590629 C109.877211,13.9231695 110.346118,13.492541 110.939429,13.1671771 C111.532739,12.8418133 112.212175,12.6791314 112.977737,12.6791314 C113.800716,12.6217143 114.441874,12.7556876 114.901211,13.0810514 C115.360549,13.4064152 115.685912,13.8561829 115.877303,14.4303543 C116.068693,15.0045257 116.164389,15.6552533 116.164389,16.3825371 L116.164389,16.3825371 L116.164389,25.36832 L119.121371,25.36832 L119.121371,16.1815771 C119.121371,15.0332343 118.973044,13.9901562 118.676389,13.0523429 C118.379733,12.1145295 117.858194,11.3681067 117.111771,10.8130743 C116.365349,10.2580419 115.312701,9.98052571 113.953829,9.98052571 C112.882042,9.98052571 111.90595,10.2532571 111.025554,10.79872 C110.145158,11.3441829 109.475291,11.9709867 109.015954,12.6791314 L109.015954,12.6791314 L109.015954,10.29632 L106.058971,10.29632 L106.058971,25.36832 L109.015954,25.36832 Z M129.025829,31.9712914 C130.40384,31.9712914 131.681371,31.717699 132.858423,31.2105143 C134.035474,30.7033295 134.982857,29.8994895 135.700571,28.7989943 C136.418286,27.698499 136.777143,26.2487162 136.777143,24.4496457 L136.777143,24.4496457 L136.777143,10.29632 L133.82016,10.29632 L133.82016,12.3920457 C133.360823,11.7987352 132.686171,11.2484876 131.796206,10.7413029 C130.90624,10.2341181 129.887086,9.98052571 128.738743,9.98052571 C127.360731,9.98052571 126.111909,10.315459 124.992274,10.9853257 C123.87264,11.6551924 122.987459,12.5786514 122.336731,13.7557029 C121.686004,14.9327543 121.36064,16.2868419 121.36064,17.8179657 C121.36064,19.3299505 121.690789,20.6792533 122.351086,21.8658743 C123.011383,23.0524952 123.906133,23.980739 125.035337,24.6506057 C126.164541,25.3204724 127.427718,25.6554057 128.824869,25.6554057 C129.552152,25.6554057 130.250728,25.5262171 130.920594,25.26784 C131.590461,25.0094629 132.174202,24.6745295 132.671817,24.26304 C133.169432,23.8515505 133.552213,23.4161371 133.82016,22.9568 L133.82016,22.9568 L133.82016,24.7941486 C133.82016,26.3061333 133.40867,27.4401219 132.585691,28.1961143 C131.762712,28.9521067 130.576091,29.3301029 129.025829,29.3301029 C128.20285,29.3301029 127.360731,29.1961295 126.499474,28.9281829 C125.638217,28.6602362 124.920503,28.3061638 124.346331,27.8659657 L124.346331,27.8659657 L123.255406,30.1626514 C123.906133,30.6985448 124.762606,31.1339581 125.824823,31.4688914 C126.88704,31.8038248 127.954042,31.9712914 129.025829,31.9712914 Z M129.140663,22.9280914 C128.221989,22.9280914 127.403794,22.7032076 126.68608,22.25344 C125.968366,21.8036724 125.403764,21.1960076 124.992274,20.4304457 C124.580785,19.6648838 124.37504,18.7940571 124.37504,17.8179657 C124.37504,16.8418743 124.580785,15.9662629 124.992274,15.1911314 C125.403764,14.416 125.968366,13.8035505 126.68608,13.3537829 C127.403794,12.9040152 128.221989,12.6791314 129.140663,12.6791314 C130.097615,12.6791314 130.934949,12.9040152 131.652663,13.3537829 C132.370377,13.8035505 132.930194,14.4112152 133.332114,15.1767771 C133.734034,15.942339 133.934994,16.8227352 133.934994,17.8179657 C133.934994,18.7940571 133.734034,19.6696686 133.332114,20.4448 C132.930194,21.2199314 132.370377,21.8275962 131.652663,22.2677943 C130.934949,22.7079924 130.097615,22.9280914 129.140663,22.9280914 Z"/>
    <g transform="translate(.107)">
      <path fill="#F8C9C9" d="M19.897496,2.90560384 C23.3229035,-0.519803632 28.8765863,-0.519803632 32.3019938,2.90560384 C35.6931472,6.29675724 35.7270587,11.7738333 32.4037284,15.2067052 L32.3019938,15.3101016 L30.6899262,16.9217652 L21.1140233,26.4976682 C19.5519145,28.0597387 17.0192693,28.0597473 15.4571499,26.4976873 L5.88137708,16.9220439 L5.88137708,16.9220439 L4.26943481,15.3101016 C0.844027338,11.8846941 0.844027338,6.33101132 4.26943481,2.90560384 C7.69484229,-0.519803632 13.2485251,-0.519803632 16.6739326,2.90560384 C17.5640024,3.79576629 19.0071658,3.79584137 19.8973283,2.90577153 C19.8973448,2.905755 19.8973613,2.90573848 19.8973779,2.90572196 L19.897496,2.90560384 L19.897496,2.90560384 Z"/>
      <path fill="#C95D5D" fill-rule="nonzero" d="M16.8105425,2.93449579 C17.5072269,3.63118024 17.5072269,4.76072892 16.8105425,5.45741337 C16.127003,6.14095283 15.0267797,6.1538498 14.3275163,5.49610428 L14.2876249,5.45741337 C11.8492293,3.01901779 7.89580894,3.01901779 5.45741337,5.45741337 C3.04340174,7.87142499 3.01926163,11.7703124 5.38499302,14.2140215 L5.45741337,14.2876249 L8.39267243,17.2226724 L12.7698321,12.846141 C13.4665166,12.1494565 14.5960652,12.1494565 15.2927497,12.846141 C15.9746111,13.5280023 15.9891188,14.6245041 15.3362728,15.3240098 L15.2927497,15.3690585 L10.9146724,19.7456724 L16.8105425,25.640754 C17.5072269,26.3374384 17.5072269,27.4669871 16.8105425,28.1636715 C16.127003,28.847211 15.0267797,28.860108 14.3275163,28.2023625 L14.2876249,28.1636715 L7.43528121,21.3134376 C7.31340205,21.2400327 7.19840568,21.1507612 7.09326757,21.0456231 C6.98794408,20.9402996 6.8985432,20.8250831 6.82506494,20.7029647 L2.93449579,16.8105425 C-0.897268688,12.978778 -0.897268688,6.76626027 2.93449579,2.93449579 C6.76626027,-0.897268688 12.978778,-0.897268688 16.8105425,2.93449579 Z M19.7608861,2.93449579 C23.5926506,-0.897268688 29.8051683,-0.897268688 33.6369328,2.93449579 C37.4686973,6.76626027 37.4686973,12.978778 33.6369328,16.8105425 L33.6369328,16.8105425 L22.2838037,28.1636715 L22.2439122,28.2023625 C21.5446489,28.860108 20.4444256,28.847211 19.7608861,28.1636715 C19.0642017,27.4669871 19.0642017,26.3374384 19.7608861,25.640754 L19.7608861,25.640754 L31.1140152,14.2876249 L31.1864356,14.2140215 C33.5521669,11.7703124 33.5280268,7.87142499 31.1140152,5.45741337 C28.6756196,3.01901779 24.7221993,3.01901779 22.2838037,5.45741337 C21.5871192,6.15409782 20.4575706,6.15409782 19.7608861,5.45741337 C19.0642017,4.76072892 19.0642017,3.63118024 19.7608861,2.93449579 Z"/>
    </g>
  </g>
</svg>
