<svg xmlns="http://www.w3.org/2000/svg" width="24" height="20">
  <defs>
    <filter id="a">
      <feColorMatrix in="SourceGraphic" values="0 0 0 0 0.105882 0 0 0 0 0.105882 0 0 0 0 0.105882 0 0 0 1.000000 0"/>
    </filter>
  </defs>
  <g fill="none" fill-rule="evenodd" filter="url(#a)" transform="translate(0 -2)">
    <path fill="#1B1B1B" fill-rule="nonzero" d="M24 4.6c-.9.4-1.8.6-2.8.7 1-.6 1.8-1.5 2.1-2.7-1 .6-2 1-3 1.2a5 5 0 00-8.5 4.5A14 14 0 011.7 3a5 5 0 001.5 6.6c-.8 0-1.6-.2-2.2-.6a5 5 0 003.9 5 5 5 0 01-2.2 0 5 5 0 004.6 3.4 9.9 9.9 0 01-7.3 2A14 14 0 0021.5 7.1c1-.7 1.8-1.5 2.5-2.5z"/>
  </g>
</svg>