<svg xmlns="http://www.w3.org/2000/svg" viewBox="0 0 24 24">
  <g fill="none" transform="translate(2 2)">
    <path fill="#FFCC4D" d="M20,10 C20,15.5227778 15.5227778,20 10,20 C4.47722222,20 0,15.5227778 0,10 C0,4.47722222 4.47722222,0 10,0 C15.5227778,0 20,4.47722222 20,10"/>
    <path fill="#664500" d="M10,12.1383333 C8.35222222,12.1383333 7.25833333,11.9461111 5.90611111,11.6833333 C5.59666667,11.6244444 4.99611111,11.6833333 4.99611111,12.5933333 C4.99611111,14.4127778 7.08666667,16.6872222 10,16.6872222 C12.9133333,16.6872222 15.0038889,14.4127778 15.0038889,12.5933333 C15.0038889,11.6833333 14.4027778,11.6238889 14.0938889,11.6833333 C12.7416667,11.9461111 11.6483333,12.1383333 10,12.1383333"/>
    <path fill="#DD2E44" d="M9.25,1.82277778 C8.77277778,0.472222222 7.29222222,-0.236666667 5.94111111,0.239444444 C5.12111111,0.528333333 4.54055556,1.19 4.31444444,1.96388889 C3.65277778,1.50333333 2.78611111,1.35277778 1.96722222,1.64166667 C0.617222222,2.11833333 -0.0927777778,3.6 0.384444444,4.95055556 C0.452222222,5.14166667 0.542222222,5.31888889 0.646666667,5.48277778 C1.73055556,7.47277778 4.86222222,8.87166667 6.75833333,8.88888889 C8.22333333,7.685 9.78388889,4.63055556 9.37944444,2.40166667 C9.35833333,2.20833333 9.31666667,2.01388889 9.25,1.82277778 Z M10.75,1.82277778 C11.2272222,0.472222222 12.7083333,-0.236666667 14.0588889,0.239444444 C14.8788889,0.528333333 15.4594444,1.19 15.6861111,1.96388889 C16.3477778,1.50333333 17.2144444,1.35277778 18.0333333,1.64166667 C19.3833333,2.11833333 20.0927778,3.6 19.6166667,4.95055556 C19.5483333,5.14166667 19.4588889,5.31888889 19.3538889,5.48277778 C18.27,7.47277778 15.1383333,8.87166667 13.2416667,8.88888889 C11.7766667,7.685 10.2166667,4.63055556 10.6211111,2.40166667 C10.6416667,2.20833333 10.6833333,2.01388889 10.75,1.82277778 Z"/>
  </g>
</svg>
