<svg xmlns="http://www.w3.org/2000/svg" viewBox="0 0 24 24">
  <g fill="none" transform="translate(2 2)">
    <path fill="#FFCC4D" d="M20,10 C20,15.5227778 15.5227778,20 10,20 C4.47777778,20 0,15.5227778 0,10 C0,4.47777778 4.47777778,0 10,0 C15.5227778,0 20,4.47777778 20,10"/>
    <path fill="#664500" d="M14.1583333,16.5994444 C14.1333333,16.5 13.5094444,14.1666667 10,14.1666667 C6.49,14.1666667 5.86666667,16.5 5.84166667,16.5994444 C5.81111111,16.72 5.86555556,16.845 5.97333333,16.9072222 C6.08166667,16.9677778 6.21722222,16.9511111 6.30666667,16.8644444 C6.31722222,16.8538889 7.39222222,15.8333333 10,15.8333333 C12.6077778,15.8333333 13.6833333,16.8538889 13.6933333,16.8638889 C13.7466667,16.9166667 13.8177778,16.9444444 13.8888889,16.9444444 C13.9355556,16.9444444 13.9827778,16.9327778 14.0255556,16.9088889 C14.1344444,16.8466667 14.1888889,16.7205556 14.1583333,16.5994444 L14.1583333,16.5994444 Z M8.72611111,9.60722222 C6.91777778,7.79888889 4.01166667,7.77777778 3.88888889,7.77777778 C3.58222222,7.77777778 3.33388796,8.02611111 3.33388796,8.33222222 C3.33333333,8.63888889 3.58166667,8.88777778 3.88833333,8.88888889 C3.90444444,8.88888889 4.95777778,8.90111111 6.10111111,9.29833333 C5.77166667,9.65388889 5.55555556,10.2061111 5.55555556,10.8333333 C5.55555556,11.9077778 6.17722222,12.7777778 6.94444444,12.7777778 C7.71166667,12.7777778 8.33333333,11.9077778 8.33333333,10.8333333 C8.33333333,10.7366667 8.32277778,10.6444444 8.31277778,10.5516667 C8.32,10.5516667 8.32666667,10.5555556 8.33333333,10.5555556 C8.47555556,10.5555556 8.61777778,10.5011111 8.72611111,10.3927778 C8.94333333,10.1755556 8.94333333,9.82444444 8.72611111,9.60722222 L8.72611111,9.60722222 Z M16.1111111,7.77777778 C15.9883333,7.77777778 13.0827778,7.79888889 11.2738889,9.60722222 C11.0566667,9.82444444 11.0566667,10.1755556 11.2738889,10.3927778 C11.3822222,10.5011111 11.5244444,10.5555556 11.6666667,10.5555556 C11.6738889,10.5555556 11.68,10.5516667 11.6866667,10.5516667 C11.6777778,10.6444444 11.6666667,10.7366667 11.6666667,10.8333333 C11.6666667,11.9077778 12.2883333,12.7777778 13.0555556,12.7777778 C13.8227778,12.7777778 14.4444444,11.9077778 14.4444444,10.8333333 C14.4444444,10.2061111 14.2283333,9.65388889 13.8988889,9.29833333 C15.0422222,8.90111111 16.0955556,8.88888889 16.1122222,8.88888889 C16.4183333,8.88777778 16.6666667,8.63888889 16.666112,8.33222222 C16.6655556,8.02611111 16.4177778,7.77777778 16.1111111,7.77777778 L16.1111111,7.77777778 Z"/>
  </g>
</svg>
