<svg xmlns="http://www.w3.org/2000/svg" viewBox="0 0 24 24">
  <g fill="none" transform="translate(2 2)">
    <path fill="#FFCC4D" d="M20,10 C20,15.5227778 15.5227778,20 10,20 C4.47777778,20 0,15.5227778 0,10 C0,4.47777778 4.47777778,0 10,0 C15.5227778,0 20,4.47777778 20,10"/>
    <path fill="#664500" d="M15.8094444,9.88722222 C15.7761111,9.81222222 14.9766667,8.05555556 13.3333333,8.05555556 C11.6905556,8.05555556 10.8905556,9.81222222 10.8572222,9.88722222 C10.8061111,10.0022222 10.8394444,10.1366667 10.9377778,10.2155556 C11.035,10.2944444 11.1744444,10.2972222 11.2766667,10.2233333 C11.2833333,10.2183333 11.9777778,9.72222222 13.3333333,9.72222222 C14.6811111,9.72222222 15.3744444,10.2116667 15.39,10.2227778 C15.4388889,10.2594444 15.4977778,10.2777778 15.5555556,10.2777778 C15.6166667,10.2777778 15.6783333,10.2572222 15.7288889,10.2172222 C15.8272222,10.1383333 15.8611111,10.0027778 15.8094444,9.88722222 L15.8094444,9.88722222 Z M9.14277778,9.88722222 C9.10944444,9.81222222 8.31,8.05555556 6.66666667,8.05555556 C5.02388889,8.05555556 4.22388889,9.81222222 4.19055556,9.88722222 C4.13944444,10.0022222 4.17277778,10.1366667 4.27055556,10.2155556 C4.36833333,10.2944444 4.50777778,10.2972222 4.60944444,10.2233333 C4.61666667,10.2183333 5.31055556,9.72222222 6.66666667,9.72222222 C8.01444444,9.72222222 8.70777778,10.2116667 8.72333333,10.2227778 C8.77222222,10.2594444 8.83111111,10.2777778 8.88888889,10.2777778 C8.95,10.2777778 9.01166667,10.2572222 9.06222222,10.2172222 C9.16111111,10.1383333 9.19388889,10.0027778 9.14277778,9.88722222 L9.14277778,9.88722222 Z M10,12.2222222 C7.98722222,12.2222222 6.65166667,11.9877778 5,11.6666667 C4.62277778,11.5938889 3.88888889,11.6666667 3.88888889,12.7777778 C3.88888889,15 6.44166667,17.7777778 10,17.7777778 C13.5577778,17.7777778 16.1111111,15 16.1111111,12.7777778 C16.1111111,11.6666667 15.3772222,11.5933333 15,11.6666667 C13.3483333,11.9877778 12.0127778,12.2222222 10,12.2222222 Z"/>
    <path fill="#FFF" d="M5,12.7777778 C5,12.7777778 6.66666667,13.3333333 10,13.3333333 C13.3333333,13.3333333 15,12.7777778 15,12.7777778 C15,12.7777778 13.8888889,15 10,15 C6.11111111,15 5,12.7777778 5,12.7777778 Z"/>
  </g>
</svg>
