<svg xmlns="http://www.w3.org/2000/svg" viewBox="0 0 24 24">
  <g fill="none" transform="translate(2 2)">
    <path fill="#FFCC4D" d="M20,10 C20,15.5227778 15.5227778,20 10,20 C4.47777778,20 0,15.5227778 0,10 C0,4.47777778 4.47777778,0 10,0 C15.5227778,0 20,4.47777778 20,10"/>
    <ellipse cx="6.389" cy="9.167" fill="#664500" rx="1.389" ry="1.944"/>
    <ellipse cx="13.611" cy="9.167" fill="#664500" rx="1.389" ry="1.944"/>
    <path fill="#664500" d="M13.8888889,14.4444444 L6.11111111,14.4444444 C5.80444444,14.4444444 5.55555556,14.1961111 5.55555556,13.8888889 C5.55555556,13.5816667 5.80444444,13.3333333 6.11111111,13.3333333 L13.8888889,13.3333333 C14.1961111,13.3333333 14.4444444,13.5816667 14.4444444,13.8888889 C14.4444444,14.1961111 14.1961111,14.4444444 13.8888889,14.4444444 Z"/>
  </g>
</svg>
