<svg xmlns="http://www.w3.org/2000/svg" viewBox="0 0 24 24">
  <g fill="none" transform="translate(2 2)">
    <path fill="#FFCC4D" d="M20,10 C20,15.5227778 15.5227778,20 10,20 C4.47722222,20 0,15.5227778 0,10 C0,4.47722222 4.47722222,0 10,0 C15.5227778,0 20,4.47722222 20,10"/>
    <path fill="#664500" d="M12.2222222,15 C12.2222222,16.535 11.2272222,16.6666667 10,16.6666667 C8.77222222,16.6666667 7.77777778,16.535 7.77777778,15 C7.77777778,13.4661111 8.77222222,11.6666667 10,11.6666667 C11.2272222,11.6666667 12.2222222,13.4661111 12.2222222,15 Z M16.6666667,8.33333333 C16.5977778,8.33333333 16.5277778,8.32055556 16.4605556,8.29333333 C13.5555556,7.13166667 12.365,5.38166667 12.3155556,5.30777778 C12.145,5.05222222 12.2138889,4.70722222 12.4694444,4.53722222 C12.7244444,4.36722222 13.0677778,4.435 13.2388889,4.68944444 C13.2494444,4.70444444 14.3111111,6.23666667 16.8727778,7.26111111 C17.1577778,7.37555556 17.2966667,7.69833333 17.1827778,7.98333333 C17.0955556,8.20111111 16.8866667,8.33333333 16.6666667,8.33333333 L16.6666667,8.33333333 Z M3.33333333,8.33333333 C3.11277778,8.33333333 2.90444444,8.20111111 2.81722222,7.98388889 C2.70333333,7.69888889 2.84166667,7.37555556 3.12666667,7.26166667 C5.68888889,6.23722222 6.75055556,4.705 6.76111111,4.69 C6.93222222,4.43666667 7.27722222,4.36944444 7.53166667,4.54 C7.78555556,4.71111111 7.85444444,5.05388889 7.68444444,5.30833333 C7.635,5.38222222 6.44444444,7.13222222 3.54,8.29388889 C3.47222222,8.32055556 3.40222222,8.33333333 3.33333333,8.33333333 Z"/>
    <path fill="#5DADEC" d="M13.3333333,8.88888889 L15.5555556,8.88888889 L15.5555556,19.4444444 L13.3333333,19.4188889 L13.3333333,8.88888889 Z M4.44444444,19.4444444 L6.66666667,19.4188889 L6.66666667,8.88888889 L4.44444444,8.88888889 L4.44444444,19.4444444 Z"/>
    <path fill="#664500" d="M8.33277778,10 C8.24944444,10 8.16444444,9.98111111 8.085,9.94166667 C6.13388889,8.96611111 4.15722222,9.93166667 4.13777778,9.94166667 C3.86277778,10.08 3.52944444,9.96722222 3.39222222,9.69333333 C3.255,9.41888889 3.36611111,9.085 3.64055556,8.94777778 C3.74166667,8.89777778 6.13944444,7.72722222 8.58222222,8.94777778 C8.85666667,9.085 8.96777778,9.41888889 8.83055556,9.69333333 C8.73277778,9.88777778 8.53666667,10 8.33277778,10 Z M16.1105556,10 C16.0272222,10 15.9422222,9.98111111 15.8627778,9.94166667 C13.9111111,8.96611111 11.935,9.93166667 11.9155556,9.94166667 C11.6411111,10.0794444 11.3077778,9.96777778 11.17,9.69333333 C11.0327778,9.41888889 11.1438889,9.085 11.4183333,8.94777778 C11.5194444,8.89777778 13.9188889,7.72777778 16.36,8.94777778 C16.6344444,9.085 16.7455556,9.41888889 16.6083333,9.69333333 C16.5105556,9.88777778 16.3144444,10 16.1105556,10 L16.1105556,10 Z"/>
    <ellipse cx="10" cy="18.889" fill="#5DADEC" rx="10" ry="1.111"/>
    <ellipse cx="10" cy="15" fill="#E75A70" rx="1.667" ry="1.111"/>
  </g>
</svg>
